<?xml version="1.0" encoding="UTF-8" standalone="no"?>
<!-- Created with Inkscape (http://www.inkscape.org/) -->

<svg
   xmlns:dc="http://purl.org/dc/elements/1.1/"
   xmlns:cc="http://creativecommons.org/ns#"
   xmlns:rdf="http://www.w3.org/1999/02/22-rdf-syntax-ns#"
   xmlns:svg="http://www.w3.org/2000/svg"
   xmlns="http://www.w3.org/2000/svg"
   xmlns:sodipodi="http://sodipodi.sourceforge.net/DTD/sodipodi-0.dtd"
   xmlns:inkscape="http://www.inkscape.org/namespaces/inkscape"
   width="128mm"
   height="68mm"
   viewBox="0 0 128 68"
   version="1.1"
   id="svg914"
   inkscape:version="0.92.4 (5da689c313, 2019-01-14)"
   sodipodi:docname="cws-logo-tag.svg">
  <defs
     id="defs908">
    <inkscape:perspective
       sodipodi:type="inkscape:persp3d"
       inkscape:vp_x="0 : 25 : 1"
       inkscape:vp_y="0 : 1000 : 0"
       inkscape:vp_z="226.99999 : 25 : 1"
       inkscape:persp3d-origin="113.5 : 16.666667 : 1"
       id="perspective825" />
  </defs>
  <sodipodi:namedview
     id="base"
     pagecolor="#ffffff"
     bordercolor="#666666"
     borderopacity="1.0"
     inkscape:pageopacity="0.0"
     inkscape:pageshadow="2"
     inkscape:zoom="0.7"
     inkscape:cx="-701.97396"
     inkscape:cy="13.99642"
     inkscape:document-units="mm"
     inkscape:current-layer="layer1"
     showgrid="false"
     inkscape:window-width="1920"
     inkscape:window-height="1001"
     inkscape:window-x="-9"
     inkscape:window-y="-9"
     inkscape:window-maximized="1" />
  <metadata
     id="metadata911">
    <rdf:RDF>
      <cc:Work
         rdf:about="">
        <dc:format>image/svg+xml</dc:format>
        <dc:type
           rdf:resource="http://purl.org/dc/dcmitype/StillImage" />
        <dc:title />
      </cc:Work>
    </rdf:RDF>
  </metadata>
  <g
     inkscape:label="Layer 1"
     inkscape:groupmode="layer"
     id="layer1"
     transform="translate(0,-229)">
    <g
       sodipodi:type="inkscape:box3d"
       id="g827"
       style="opacity:1;vector-effect:none;fill:#000000;fill-opacity:0;stroke:#343a40;stroke-width:9.44881916;stroke-linecap:butt;stroke-linejoin:miter;stroke-miterlimit:10;stroke-dasharray:none;stroke-dashoffset:0;stroke-opacity:0;paint-order:stroke fill markers"
       inkscape:perspectiveID="#perspective825"
       inkscape:corner0="1.6213886 : 0.30782022 : 0 : 1"
       inkscape:corner7="0.3787823 : 0.14706183 : 0.25 : 1">
      <path
         sodipodi:type="inkscape:box3dside"
         id="path829"
         style="fill:#353564;fill-rule:evenodd;stroke:none;stroke-linejoin:round"
         inkscape:box3dsidetype="6"
         d="m 43.297664,139.75258 v 61.32566 l 15.994207,4.60768 v -55.98629 z"
         points="43.297664,201.07824 59.291871,205.68592 59.291871,149.69963 43.297664,139.75258 " />
      <path
         sodipodi:type="inkscape:box3dside"
         id="path839"
         style="fill:#e9e9ff;fill-rule:evenodd;stroke:none;stroke-linejoin:round"
         inkscape:box3dsidetype="11"
         d="M 59.291871,149.69963 104.52594,70.12835 v 98.69851 l -45.234069,36.85906 z"
         points="104.52594,70.12835 104.52594,168.82686 59.291871,205.68592 59.291871,149.69963 " />
      <path
         sodipodi:type="inkscape:box3dside"
         id="path831"
         style="fill:#4d4d9f;fill-rule:evenodd;stroke:none;stroke-linejoin:round"
         inkscape:box3dsidetype="5"
         d="M 43.297664,139.75258 82.319017,36.78885 104.52594,70.12835 59.291871,149.69963 Z"
         points="82.319017,36.78885 104.52594,70.12835 59.291871,149.69963 43.297664,139.75258 " />
      <path
         sodipodi:type="inkscape:box3dside"
         id="path837"
         style="fill:#afafde;fill-rule:evenodd;stroke:none;stroke-linejoin:round"
         inkscape:box3dsidetype="13"
         d="m 43.297664,201.07824 39.021353,-47.69492 22.206923,15.44354 -45.234069,36.85906 z"
         points="82.319017,153.38332 104.52594,168.82686 59.291871,205.68592 43.297664,201.07824 " />
      <path
         sodipodi:type="inkscape:box3dside"
         id="path835"
         style="fill:#d7d7ff;fill-rule:evenodd;stroke:none;stroke-linejoin:round"
         inkscape:box3dsidetype="14"
         d="m 82.319017,36.78885 v 116.59447 l 22.206923,15.44354 V 70.12835 Z"
         points="82.319017,153.38332 104.52594,168.82686 104.52594,70.12835 82.319017,36.78885 " />
      <path
         sodipodi:type="inkscape:box3dside"
         id="path833"
         style="fill:#8686bf;fill-rule:evenodd;stroke:none;stroke-linejoin:round"
         inkscape:box3dsidetype="3"
         d="M 43.297664,139.75258 82.319017,36.78885 v 116.59447 l -39.021353,47.69492 z"
         points="82.319017,36.78885 82.319017,153.38332 43.297664,201.07824 43.297664,139.75258 " />
    </g>
    <g
       aria-label="ClearWater
Sensors"
       style="font-style:normal;font-variant:normal;font-weight:normal;font-stretch:normal;font-size:10.4549017px;line-height:1;font-family:'Saira SemiCondensed';-inkscape-font-specification:'Saira SemiCondensed, ';letter-spacing:0px;word-spacing:0px;fill:#000000;fill-opacity:1;stroke:none;stroke-width:0.26458332"
       id="text817-2-7-2-9-3">
      <path
         d="m 7.772917,251.02997 c 1.3103477,0 2.955252,-0.16728 3.986803,-0.39032 v -2.28614 c -0.920032,0.1394 -2.2861389,0.25092 -3.3176893,0.25092 -4.2377204,0 -4.5722773,-0.64123 -4.5722773,-7.38813 0,-6.7469 0.3345569,-7.38813 4.5722773,-7.38813 0.8085125,0 2.0352213,0.11152 3.2061703,0.25092 v -2.25826 c -0.920032,-0.25092 -2.5370565,-0.4182 -3.875284,-0.4182 -5.8826251,0 -6.77477679,1.78431 -6.77477679,9.81367 0,8.08512 0.86427189,9.81367 6.77477679,9.81367 z"
         style="font-style:normal;font-variant:normal;font-weight:500;font-stretch:semi-condensed;font-size:27.87973976px;line-height:0.89999998;font-family:'Saira SemiCondensed';-inkscape-font-specification:'Saira SemiCondensed, Medium Semi-Condensed';fill:#00aad4;stroke-width:0.26458332"
         id="path834" />
      <path
         d="m 14.862212,250.80693 h 2.704335 v -20.71465 h -2.704335 z"
         style="font-style:normal;font-variant:normal;font-weight:500;font-stretch:semi-condensed;font-size:27.87973976px;line-height:0.89999998;font-family:'Saira SemiCondensed';-inkscape-font-specification:'Saira SemiCondensed, Medium Semi-Condensed';fill:#00aad4;stroke-width:0.26458332"
         id="path836" />
      <path
         d="m 31.795669,243.6976 c 0,-5.38079 -0.167278,-7.33237 -5.213511,-7.33237 -5.32503,0 -5.687467,2.09098 -5.687467,7.36025 0,5.46443 0.529715,7.30449 5.882625,7.30449 1.617025,0 3.512847,-0.16728 4.544398,-0.4182 v -2.09098 c -1.254588,0.16728 -2.871613,0.2788 -3.958923,0.2788 -3.512847,0 -3.763765,-0.64123 -3.763765,-4.2656 h 8.196643 z m -5.26927,-5.15775 c 2.11886,0 2.676455,0.39031 2.676455,3.9868 v 0.19516 h -5.603828 c 0,-3.59649 0.334557,-4.18196 2.927373,-4.18196 z"
         style="font-style:normal;font-variant:normal;font-weight:500;font-stretch:semi-condensed;font-size:27.87973976px;line-height:0.89999998;font-family:'Saira SemiCondensed';-inkscape-font-specification:'Saira SemiCondensed, Medium Semi-Condensed';fill:#00aad4;stroke-width:0.26458332"
         id="path838" />
      <path
         d="m 38.407088,251.02997 c 1.449747,0 3.28981,-0.22304 4.070442,-2.11886 h 0.167279 l 0.111519,1.89582 h 2.481297 v -8.86576 c 0,-4.15408 -0.724874,-5.57594 -5.40867,-5.57594 -1.672784,0 -3.345569,0.16727 -4.628037,0.41819 v 2.09098 c 0.947911,-0.1394 2.760095,-0.2788 3.791645,-0.2788 3.011012,0 3.540727,0.22304 3.540727,3.26193 v 0.8364 c -1.366107,-0.0558 -3.429208,-0.11152 -4.154081,-0.11152 -3.094651,0 -3.986803,1.08731 -3.986803,4.2656 0,3.15041 1.282468,4.18196 4.014682,4.18196 z m 1.08731,-2.2025 c -2.0631,0 -2.481297,-0.39032 -2.481297,-2.2025 0,-1.95158 0.390317,-2.23038 2.118861,-2.23038 h 3.401328 v 0.75275 c 0,1.19883 -0.139399,1.97946 -0.446076,2.6207 -0.473956,0.92003 -1.421867,1.05943 -2.592816,1.05943 z"
         style="font-style:normal;font-variant:normal;font-weight:500;font-stretch:semi-condensed;font-size:27.87973976px;line-height:0.89999998;font-family:'Saira SemiCondensed';-inkscape-font-specification:'Saira SemiCondensed, Medium Semi-Condensed';fill:#00aad4;stroke-width:0.26458332"
         id="path840" />
      <path
         d="m 49.004002,250.80693 h 2.704334 v -6.38446 c 0,-3.79164 0.892152,-5.38079 4.181961,-5.38079 v -2.67645 c -2.035221,0 -3.484967,0.55759 -4.126201,2.81585 h -0.195158 l -0.111519,-2.59282 h -2.453417 z"
         style="font-style:normal;font-variant:normal;font-weight:500;font-stretch:semi-condensed;font-size:27.87973976px;line-height:0.89999998;font-family:'Saira SemiCondensed';-inkscape-font-specification:'Saira SemiCondensed, Medium Semi-Condensed';fill:#00aad4;stroke-width:0.26458332"
         id="path842" />
      <path
         d="m 63.7377,250.80693 h 3.624366 l 3.401329,-14.69262 h 0.139398 l 3.401329,14.69262 h 3.624366 l 4.154081,-19.18126 h -2.871613 l -3.038892,15.55689 h -0.167278 l -3.540727,-15.55689 h -3.150411 l -3.512847,15.55689 h -0.167278 l -3.122531,-15.55689 h -2.927373 z"
         style="font-style:normal;font-variant:normal;font-weight:500;font-stretch:semi-condensed;font-size:27.87973976px;line-height:0.89999998;font-family:'Saira SemiCondensed';-inkscape-font-specification:'Saira SemiCondensed, Medium Semi-Condensed';fill:#00aad4;stroke-width:0.26458332"
         id="path844" />
      <path
         d="m 86.889213,251.02997 c 1.449746,0 3.289809,-0.22304 4.070442,-2.11886 h 0.167278 l 0.111519,1.89582 h 2.481297 v -8.86576 c 0,-4.15408 -0.724873,-5.57594 -5.40867,-5.57594 -1.672784,0 -3.345568,0.16727 -4.628036,0.41819 v 2.09098 c 0.947911,-0.1394 2.760094,-0.2788 3.791644,-0.2788 3.011012,0 3.540727,0.22304 3.540727,3.26193 v 0.8364 c -1.366107,-0.0558 -3.429208,-0.11152 -4.154081,-0.11152 -3.094651,0 -3.986803,1.08731 -3.986803,4.2656 0,3.15041 1.282468,4.18196 4.014683,4.18196 z m 1.08731,-2.2025 c -2.063101,0 -2.481297,-0.39032 -2.481297,-2.2025 0,-1.95158 0.390316,-2.23038 2.11886,-2.23038 h 3.401328 v 0.75275 c 0,1.19883 -0.139398,1.97946 -0.446076,2.6207 -0.473955,0.92003 -1.421866,1.05943 -2.592815,1.05943 z"
         style="font-style:normal;font-variant:normal;font-weight:500;font-stretch:semi-condensed;font-size:27.87973976px;line-height:0.89999998;font-family:'Saira SemiCondensed';-inkscape-font-specification:'Saira SemiCondensed, Medium Semi-Condensed';fill:#00aad4;stroke-width:0.26458332"
         id="path846" />
      <path
         d="m 98.382196,250.80693 h 2.732214 v -11.98829 h 2.81585 v -2.23038 h -2.81585 v -4.1262 h -2.732214 v 4.1262 h -2.397658 v 2.23038 h 2.397658 z"
         style="font-style:normal;font-variant:normal;font-weight:500;font-stretch:semi-condensed;font-size:27.87973976px;line-height:0.89999998;font-family:'Saira SemiCondensed';-inkscape-font-specification:'Saira SemiCondensed, Medium Semi-Condensed';fill:#00aad4;stroke-width:0.26458332"
         id="path848" />
      <path
         d="m 116.7066,243.6976 c 0,-5.38079 -0.16728,-7.33237 -5.21352,-7.33237 -5.32503,0 -5.68746,2.09098 -5.68746,7.36025 0,5.46443 0.52971,7.30449 5.88262,7.30449 1.61703,0 3.51285,-0.16728 4.5444,-0.4182 v -2.09098 c -1.25459,0.16728 -2.87161,0.2788 -3.95892,0.2788 -3.51285,0 -3.76377,-0.64123 -3.76377,-4.2656 h 8.19665 z m -5.26927,-5.15775 c 2.11886,0 2.67645,0.39031 2.67645,3.9868 v 0.19516 h -5.60383 c 0,-3.59649 0.33456,-4.18196 2.92738,-4.18196 z"
         style="font-style:normal;font-variant:normal;font-weight:500;font-stretch:semi-condensed;font-size:27.87973976px;line-height:0.89999998;font-family:'Saira SemiCondensed';-inkscape-font-specification:'Saira SemiCondensed, Medium Semi-Condensed';fill:#00aad4;stroke-width:0.26458332"
         id="path850" />
      <path
         d="m 120.08397,250.80693 h 2.70433 v -6.38446 c 0,-3.79164 0.89215,-5.38079 4.18196,-5.38079 v -2.67645 c -2.03522,0 -3.48497,0.55759 -4.1262,2.81585 h -0.19516 l -0.11152,-2.59282 h -2.45341 z"
         style="font-style:normal;font-variant:normal;font-weight:500;font-stretch:semi-condensed;font-size:27.87973976px;line-height:0.89999998;font-family:'Saira SemiCondensed';-inkscape-font-specification:'Saira SemiCondensed, Medium Semi-Condensed';fill:#00aad4;stroke-width:0.26458332"
         id="path852" />
      <path
         d="m 7.1038032,276.12173 c 3.7637648,0 5.6038278,-0.92003 5.6038278,-5.57594 0,-1.42187 -0.05576,-2.39766 -0.306677,-3.06678 -0.501836,-1.5055 -1.728544,-1.7843 -3.5964867,-2.00734 l -4.0146825,-0.52971 c -1.8958223,-0.22304 -2.1746197,-0.697 -2.1746197,-3.26193 0,-1.28247 0.111519,-2.28614 0.8363922,-2.89949 0.6691138,-0.58548 1.7843034,-0.8364 3.7358851,-0.8364 1.4497465,0 3.3734486,0.1394 4.6837966,0.33456 v -1.39399 c -1.08731,-0.22303 -3.1225311,-0.39031 -4.9904737,-0.39031 -4.0146825,0 -5.91050483,1.08731 -5.91050483,5.18563 0,2.73221 0.19515823,4.43288 3.20617003,4.79531 l 4.181961,0.52972 c 2.6206955,0.33456 2.7043345,0.64123 2.7043345,3.708 0,1.47763 -0.08364,2.70434 -0.920031,3.26193 -0.8085126,0.5576 -1.840063,0.697 -3.5128474,0.697 -1.3382275,0 -3.5686066,-0.16728 -5.1856316,-0.36244 v 1.44975 c 1.5612655,0.22303 3.8752839,0.36243 5.6595872,0.36243 z"
         style="font-style:normal;font-variant:normal;font-weight:300;font-stretch:semi-condensed;font-size:27.87973976px;line-height:0.89999998;font-family:'Saira SemiCondensed';-inkscape-font-specification:'Saira SemiCondensed, Light Semi-Condensed';stroke-width:0.26458332"
         id="path854" />
      <path
         d="m 26.481965,268.76148 c 0,-5.54807 -0.250918,-7.30449 -4.934714,-7.30449 -5.269271,0 -5.520189,1.9237 -5.520189,7.36025 0,5.71535 0.641234,7.30449 5.548069,7.30449 1.589145,0 3.429207,-0.16727 4.432878,-0.39031 v -1.31035 c -1.170949,0.19516 -2.899493,0.36244 -4.154081,0.36244 -3.903164,0 -4.2656,-1.00367 -4.2656,-5.49231 h 8.893637 z m -5.018353,-5.96626 c 2.732214,0 3.484967,0.47395 3.484967,4.85107 v 0.44608 h -7.360251 c 0,-4.57228 0.418196,-5.29715 3.875284,-5.29715 z"
         style="font-style:normal;font-variant:normal;font-weight:300;font-stretch:semi-condensed;font-size:27.87973976px;line-height:0.89999998;font-family:'Saira SemiCondensed';-inkscape-font-specification:'Saira SemiCondensed, Light Semi-Condensed';stroke-width:0.26458332"
         id="path856" />
      <path
         d="m 30.36117,275.8987 h 1.561266 v -7.36026 c 0,-3.31768 0.05576,-5.68746 3.763764,-5.68746 2.899493,0 3.401329,0.55759 3.401329,4.5444 v 8.50332 h 1.561265 v -8.92152 c 0,-3.93104 -0.585474,-5.52019 -4.432878,-5.52019 -2.815854,0 -3.819525,1.05943 -4.265601,2.3419 h -0.139398 l -0.08364,-2.11886 H 30.36117 Z"
         style="font-style:normal;font-variant:normal;font-weight:300;font-stretch:semi-condensed;font-size:27.87973976px;line-height:0.89999998;font-family:'Saira SemiCondensed';-inkscape-font-specification:'Saira SemiCondensed, Light Semi-Condensed';stroke-width:0.26458332"
         id="path858" />
      <path
         d="m 48.994419,276.12173 c 3.20617,0 4.655917,-0.78063 4.655917,-4.04256 0,-3.09465 -0.669114,-3.65224 -2.760095,-3.90316 l -3.373448,-0.39032 c -1.393987,-0.1394 -1.756424,-0.39031 -1.756424,-2.36978 0,-2.36977 1.226709,-2.62069 3.20617,-2.62069 1.477627,0 2.787974,0.11152 4.014683,0.33455 v -1.31034 c -0.975791,-0.22304 -2.592816,-0.36244 -3.819524,-0.36244 -3.038892,0 -4.906835,0.47396 -4.906835,4.09832 0,2.39766 0.529715,3.34557 2.704335,3.62437 l 3.429208,0.39031 c 1.366107,0.16728 1.756424,0.2788 1.756424,2.53706 0,1.7843 -0.362437,2.67646 -3.066772,2.67646 -1.589145,0 -2.815853,-0.11152 -4.432878,-0.30668 v 1.31035 c 1.115189,0.19515 2.955252,0.33455 4.349239,0.33455 z"
         style="font-style:normal;font-variant:normal;font-weight:300;font-stretch:semi-condensed;font-size:27.87973976px;line-height:0.89999998;font-family:'Saira SemiCondensed';-inkscape-font-specification:'Saira SemiCondensed, Light Semi-Condensed';stroke-width:0.26458332"
         id="path860" />
      <path
         d="m 62.194169,276.12173 c 5.074113,0 5.436549,-1.33822 5.436549,-7.30449 0,-5.99414 -0.362436,-7.36025 -5.436549,-7.36025 -5.074113,0 -5.436549,1.36611 -5.436549,7.36025 0,5.96627 0.362436,7.30449 5.436549,7.30449 z m 0,-1.33822 c -3.819524,0 -3.875284,-0.86428 -3.875284,-5.96627 0,-5.12987 0.05576,-6.02202 3.875284,-6.02202 3.819524,0 3.875284,0.89215 3.875284,6.02202 0,5.10199 -0.05576,5.96627 -3.875284,5.96627 z"
         style="font-style:normal;font-variant:normal;font-weight:300;font-stretch:semi-condensed;font-size:27.87973976px;line-height:0.89999998;font-family:'Saira SemiCondensed';-inkscape-font-specification:'Saira SemiCondensed, Light Semi-Condensed';stroke-width:0.26458332"
         id="path862" />
      <path
         d="m 71.527346,275.8987 h 1.561265 v -6.91418 c 0,-3.93104 0.808513,-5.96626 4.32136,-5.96626 v -1.56127 c -2.063101,0 -3.680126,0.5576 -4.29348,3.03889 h -0.139399 l -0.111518,-2.81585 h -1.338228 z"
         style="font-style:normal;font-variant:normal;font-weight:300;font-stretch:semi-condensed;font-size:27.87973976px;line-height:0.89999998;font-family:'Saira SemiCondensed';-inkscape-font-specification:'Saira SemiCondensed, Light Semi-Condensed';stroke-width:0.26458332"
         id="path864" />
      <path
         d="m 84.225266,276.12173 c 3.20617,0 4.655916,-0.78063 4.655916,-4.04256 0,-3.09465 -0.669114,-3.65224 -2.760094,-3.90316 l -3.373449,-0.39032 c -1.393987,-0.1394 -1.756423,-0.39031 -1.756423,-2.36978 0,-2.36977 1.226708,-2.62069 3.20617,-2.62069 1.477626,0 2.787974,0.11152 4.014682,0.33455 v -1.31034 c -0.975791,-0.22304 -2.592815,-0.36244 -3.819524,-0.36244 -3.038892,0 -4.906834,0.47396 -4.906834,4.09832 0,2.39766 0.529715,3.34557 2.704335,3.62437 l 3.429208,0.39031 c 1.366107,0.16728 1.756423,0.2788 1.756423,2.53706 0,1.7843 -0.362436,2.67646 -3.066771,2.67646 -1.589145,0 -2.815854,-0.11152 -4.432879,-0.30668 v 1.31035 c 1.11519,0.19515 2.955253,0.33455 4.34924,0.33455 z"
         style="font-style:normal;font-variant:normal;font-weight:300;font-stretch:semi-condensed;font-size:27.87973976px;line-height:0.89999998;font-family:'Saira SemiCondensed';-inkscape-font-specification:'Saira SemiCondensed, Light Semi-Condensed';stroke-width:0.26458332"
         id="path866" />
    </g>
    <flowRoot
       xml:space="preserve"
       id="flowRoot904"
       style="font-style:normal;font-variant:normal;font-weight:normal;font-stretch:normal;font-size:16px;line-height:1;font-family:'Saira SemiCondensed';-inkscape-font-specification:'Saira SemiCondensed, ';letter-spacing:0px;word-spacing:0px;fill:#000000;fill-opacity:1;stroke:none"
       transform="matrix(0.26458333,0,0,0.26458333,0,247)"><flowRegion
         id="flowRegion906"><rect
           id="rect908"
           width="115.15739"
           height="22.223356"
           x="-888.93427"
           y="465.75818" /></flowRegion><flowPara
         id="flowPara910" /></flowRoot>    <text
       xml:space="preserve"
       style="font-style:normal;font-variant:normal;font-weight:normal;font-stretch:normal;font-size:9.32667637px;line-height:1;font-family:'Saira SemiCondensed';-inkscape-font-specification:'Saira SemiCondensed, ';letter-spacing:0px;word-spacing:0px;fill:#000000;fill-opacity:1;stroke:none;stroke-width:0.26458341"
       x="-298.62723"
       y="263.5928"
       id="text829-5-4"><tspan
         sodipodi:role="line"
         x="-298.62723"
         y="270.31821"
         style="font-style:normal;font-variant:normal;font-weight:300;font-stretch:semi-condensed;font-size:14.11111069px;font-family:'Saira SemiCondensed';-inkscape-font-specification:'Saira SemiCondensed, Light Semi-Condensed';stroke-width:0.26458341"
         id="tspan937" /></text>
    <text
       xml:space="preserve"
       style="font-style:normal;font-variant:normal;font-weight:normal;font-stretch:normal;font-size:4.23333311px;line-height:1;font-family:'Saira SemiCondensed';-inkscape-font-specification:'Saira SemiCondensed, ';letter-spacing:0px;word-spacing:0px;fill:#000000;fill-opacity:1;stroke:none;stroke-width:0.26458332"
       x="-285.97836"
       y="279.89474"
       id="text949"><tspan
         sodipodi:role="line"
         id="tspan947"
         x="-285.97836"
         y="282.94736"
         style="stroke-width:0.26458332" /></text>
    <g
       aria-label="resolving aquatic chemistry"
       style="font-style:normal;font-variant:normal;font-weight:normal;font-stretch:normal;font-size:3.41361308px;line-height:1;font-family:'Saira SemiCondensed';-inkscape-font-specification:'Saira SemiCondensed, ';letter-spacing:0px;word-spacing:0px;fill:#000000;fill-opacity:1;stroke:none;stroke-width:0.26458332"
       id="text945-7">
      <path
         d="M 0.97026059,290.42572 H 1.8350426 v -2.73089 c 0,-1.55888 0.35274,-2.28712 1.729564,-2.28712 v -0.87616 c -0.8306458,0 -1.4564749,0.22757 -1.7181853,1.19476 h -0.056894 l -0.045515,-1.10373 H 0.97026059 Z"
         style="font-size:11.37871075px;stroke-width:0.26458332"
         id="path869" />
      <path
         d="m 8.7568545,287.52415 c 0,-2.23023 -0.09103,-2.9926 -2.0709254,-2.9926 -2.161955,0 -2.2871208,0.81927 -2.2871208,3.00398 0,2.27574 0.2389529,2.98122 2.3326357,2.98122 0.6485865,0 1.4223388,-0.0683 1.8319724,-0.1593 v -0.70548 c -0.5006633,0.0797 -1.1833859,0.13654 -1.6612917,0.13654 -1.5133686,0 -1.6385344,-0.32998 -1.6385344,-1.97989 h 3.4932642 z m -2.0936828,-2.26436 c 0.9899479,0 1.2630369,0.18205 1.2630369,1.78645 v 0.12517 H 5.2635903 c 0.011379,-1.64991 0.1479232,-1.91162 1.3995814,-1.91162 z"
         style="font-size:11.37871075px;stroke-width:0.26458332"
         id="path871" />
      <path
         d="m 11.932582,290.51675 c 1.297173,0 1.94576,-0.3186 1.94576,-1.70681 0,-1.29717 -0.329983,-1.52474 -1.137872,-1.61577 l -1.308551,-0.15931 c -0.523421,-0.0569 -0.648587,-0.13654 -0.648587,-0.8534 0,-0.83064 0.421012,-0.92167 1.206144,-0.92167 0.557556,0 1.103734,0.0455 1.593019,0.13654 v -0.70548 c -0.398255,-0.091 -1.069599,-0.1593 -1.604398,-0.1593 -1.251658,0 -2.0367894,0.21619 -2.0367894,1.69543 0,1.02408 0.2161954,1.43371 1.0809774,1.5475 l 1.342688,0.1593 c 0.534799,0.0683 0.659965,0.10241 0.659965,0.9103 0,0.65996 -0.125166,0.94443 -1.160628,0.94443 -0.603072,0 -1.115114,-0.0455 -1.7637,-0.12516 v 0.71686 c 0.489284,0.0797 1.263036,0.13654 1.831972,0.13654 z"
         style="font-size:11.37871075px;stroke-width:0.26458332"
         id="path873" />
      <path
         d="m 17.30849,290.51675 c 2.11644,0 2.264363,-0.56894 2.264363,-2.9926 0,-2.41229 -0.147923,-2.9926 -2.264363,-2.9926 -2.116441,0 -2.264364,0.58031 -2.264364,2.9926 0,2.42366 0.147923,2.9926 2.264364,2.9926 z m 0,-0.73962 c -1.376824,0 -1.399582,-0.29584 -1.399582,-2.25298 0,-1.95714 0.02276,-2.25299 1.399582,-2.25299 1.376824,0 1.399581,0.29585 1.399581,2.25299 0,1.95714 -0.02276,2.25298 -1.399581,2.25298 z"
         style="font-size:11.37871075px;stroke-width:0.26458332"
         id="path875" />
      <path
         d="m 21.060797,290.42572 h 0.864782 v -8.45438 h -0.864782 z"
         style="font-size:11.37871075px;stroke-width:0.26458332"
         id="path877" />
      <path
         d="m 24.913202,290.42572 h 1.092356 l 1.85473,-5.80314 h -0.887539 l -1.467854,4.81319 h -0.07965 l -1.467854,-4.81319 h -0.910297 z"
         style="font-size:11.37871075px;stroke-width:0.26458332"
         id="path879" />
      <path
         d="M 28.972024,283.05232 H 29.8937 v -1.08098 h -0.921676 z m 0.02276,7.3734 h 0.864782 v -5.80314 h -0.864782 z"
         style="font-size:11.37871075px;stroke-width:0.26458332"
         id="path881" />
      <path
         d="m 31.572769,290.42572 h 0.864782 v -3.01536 c 0,-1.30855 0.03414,-2.09368 1.354067,-2.09368 1.05822,0 1.2289,0.18206 1.2289,1.74094 v 3.3681 h 0.864783 v -3.66394 c 0,-1.55889 -0.238953,-2.23023 -1.740943,-2.23023 -1.046842,0 -1.490611,0.36412 -1.695428,0.91029 h -0.05689 l -0.04551,-0.81926 h -0.773752 z"
         style="font-size:11.37871075px;stroke-width:0.26458332"
         id="path883" />
      <path
         d="m 39.43937,292.7356 c 2.127819,0 2.366772,-0.84203 2.366772,-3.09501 v -5.01801 h -0.773753 l -0.04552,0.81926 h -0.05689 c -0.284468,-0.78513 -0.978569,-0.91029 -1.661292,-0.91029 -1.524747,0 -1.911623,0.60307 -1.911623,2.98122 0,2.35539 0.375497,2.96984 1.900244,2.96984 0.830646,0 1.376824,-0.20481 1.627156,-0.81926 h 0.05689 v 0.21619 c 0,1.72957 -0.159302,2.11644 -1.672671,2.11644 -0.466527,0 -1.080977,-0.0228 -1.638534,-0.0569 v 0.6941 c 0.44377,0.0569 1.183386,0.10241 1.809215,0.10241 z m 0.147923,-3.01536 c -1.194765,0 -1.365445,-0.23895 -1.365445,-2.20747 0,-1.96852 0.17068,-2.20747 1.365445,-2.20747 0.682723,0 1.069599,0.20482 1.24028,0.77375 0.102408,0.34136 0.113787,0.81927 0.113787,1.43372 0,0.65997 -0.01138,1.13787 -0.136545,1.51337 -0.159302,0.48928 -0.534799,0.6941 -1.217522,0.6941 z"
         style="font-size:11.37871075px;stroke-width:0.26458332"
         id="path885" />
      <path
         d="m 47.306328,290.51675 c 0.625829,0 1.433718,-0.091 1.729564,-0.9103 h 0.06827 l 0.03414,0.81927 h 0.785131 v -3.66394 c 0,-1.70681 -0.318604,-2.23023 -2.139198,-2.23023 -0.682722,0 -1.365445,0.0683 -1.85473,0.1593 v 0.6941 c 0.398255,-0.0569 1.160629,-0.11379 1.581641,-0.11379 1.308552,0 1.547505,0.11379 1.547505,1.49062 v 0.39825 c -0.614451,-0.0228 -1.547505,-0.0569 -1.85473,-0.0569 -1.251658,0 -1.604398,0.43239 -1.604398,1.71818 0,1.31993 0.534799,1.69543 1.706806,1.69543 z m 0.295847,-0.73962 c -0.955812,0 -1.160629,-0.18206 -1.160629,-1.0127 0,-0.88754 0.193438,-1.02409 1.001327,-1.02409 h 1.615777 v 0.35274 c 0,0.52343 -0.06827,0.87617 -0.216196,1.19477 -0.216195,0.44377 -0.694101,0.48928 -1.240279,0.48928 z"
         style="font-size:11.37871075px;stroke-width:0.26458332"
         id="path887" />
      <path
         d="m 54.986957,292.65595 h 0.864782 v -8.03337 h -0.773753 l -0.04551,0.81926 h -0.05689 c -0.284468,-0.78513 -0.978569,-0.91029 -1.672671,-0.91029 -1.513368,0 -1.900244,0.60307 -1.900244,2.9926 0,2.36677 0.375497,2.9926 1.888866,2.9926 0.830646,0 1.376824,-0.20482 1.638534,-0.81927 h 0.05689 z M 53.644269,289.743 c -1.206144,0 -1.376824,-0.23896 -1.376824,-2.21885 0,-1.9799 0.17068,-2.21885 1.376824,-2.21885 0.659965,0 1.046841,0.19344 1.194764,0.64859 0.136545,0.42101 0.147924,0.91029 0.147924,1.57026 0,0.63721 -0.01138,1.11511 -0.113787,1.46785 -0.170681,0.54618 -0.546179,0.751 -1.228901,0.751 z"
         style="font-size:11.37871075px;stroke-width:0.26458332"
         id="path889" />
      <path
         d="m 59.304466,290.51675 c 1.046841,0 1.490611,-0.36412 1.695427,-0.9103 h 0.05689 l 0.04552,0.81927 h 0.773752 v -5.80314 h -0.864782 v 3.01536 c 0,1.31993 -0.03414,2.09368 -1.354066,2.09368 -1.05822,0 -1.228901,-0.18206 -1.228901,-1.74094 v -3.3681 h -0.864782 v 3.66394 c 0,1.55889 0.238953,2.23023 1.740943,2.23023 z"
         style="font-size:11.37871075px;stroke-width:0.26458332"
         id="path891" />
      <path
         d="m 64.952218,290.51675 c 0.625829,0 1.433717,-0.091 1.729564,-0.9103 h 0.06827 l 0.03414,0.81927 h 0.785131 v -3.66394 c 0,-1.70681 -0.318604,-2.23023 -2.139198,-2.23023 -0.682722,0 -1.365445,0.0683 -1.854729,0.1593 v 0.6941 c 0.398255,-0.0569 1.160628,-0.11379 1.58164,-0.11379 1.308552,0 1.547505,0.11379 1.547505,1.49062 v 0.39825 c -0.61445,-0.0228 -1.547505,-0.0569 -1.85473,-0.0569 -1.251658,0 -1.604398,0.43239 -1.604398,1.71818 0,1.31993 0.534799,1.69543 1.706807,1.69543 z m 0.295846,-0.73962 c -0.955812,0 -1.160628,-0.18206 -1.160628,-1.0127 0,-0.88754 0.193438,-1.02409 1.001326,-1.02409 h 1.615777 v 0.35274 c 0,0.52343 -0.06827,0.87617 -0.216195,1.19477 -0.216196,0.44377 -0.694102,0.48928 -1.24028,0.48928 z"
         style="font-size:11.37871075px;stroke-width:0.26458332"
         id="path893" />
      <path
         d="m 69.619087,290.42572 h 0.864782 v -5.06353 h 1.183386 v -0.73961 h -1.183386 v -1.68405 h -0.864782 v 1.68405 h -1.012706 v 0.73961 h 1.012706 z"
         style="font-size:11.37871075px;stroke-width:0.26458332"
         id="path895" />
      <path
         d="m 72.775613,283.05232 h 0.921675 v -1.08098 h -0.921675 z m 0.02276,7.3734 h 0.864782 v -5.80314 H 72.79837 Z"
         style="font-size:11.37871075px;stroke-width:0.26458332"
         id="path897" />
      <path
         d="m 77.276603,290.51675 c 0.477906,0 1.046841,-0.0683 1.388202,-0.14792 v -0.70548 c -0.329982,0.0683 -0.819267,0.11378 -1.194764,0.11378 -1.251658,0 -1.445096,-0.32998 -1.445096,-2.26436 0,-1.86611 0.182059,-2.24161 1.422338,-2.24161 0.35274,0 0.842025,0.0455 1.172008,0.11379 v -0.70548 c -0.329983,-0.091 -0.898919,-0.14792 -1.376824,-0.14792 -1.763701,0 -2.082305,0.76237 -2.082305,2.9926 0,2.10506 0.170681,2.9926 2.116441,2.9926 z"
         style="font-size:11.37871075px;stroke-width:0.26458332"
         id="path899" />
      <path
         d="m 84.321631,290.51675 c 0.477906,0 1.046842,-0.0683 1.388203,-0.14792 v -0.70548 c -0.329983,0.0683 -0.819267,0.11378 -1.194765,0.11378 -1.251658,0 -1.445096,-0.32998 -1.445096,-2.26436 0,-1.86611 0.18206,-2.24161 1.422339,-2.24161 0.35274,0 0.842025,0.0455 1.172007,0.11379 v -0.70548 c -0.329982,-0.091 -0.898918,-0.14792 -1.376824,-0.14792 -1.7637,0 -2.082304,0.76237 -2.082304,2.9926 0,2.10506 0.170681,2.9926 2.11644,2.9926 z"
         style="font-size:11.37871075px;stroke-width:0.26458332"
         id="path901" />
      <path
         d="m 87.043983,290.42572 h 0.864782 v -3.01536 c 0,-1.30855 0.03414,-2.09368 1.354067,-2.09368 1.05822,0 1.228901,0.18206 1.228901,1.74094 v 3.3681 h 0.864782 v -3.67532 c 0,-1.54751 -0.238953,-2.21885 -1.752322,-2.21885 -1.024084,0 -1.445096,0.3755 -1.638534,0.84202 h -0.05689 v -3.40223 h -0.864782 z"
         style="font-size:11.37871075px;stroke-width:0.26458332"
         id="path903" />
      <path
         d="m 97.18633,287.52415 c 0,-2.23023 -0.09103,-2.9926 -2.070925,-2.9926 -2.161955,0 -2.287121,0.81927 -2.287121,3.00398 0,2.27574 0.238953,2.98122 2.332636,2.98122 0.648586,0 1.422338,-0.0683 1.831972,-0.1593 v -0.70548 c -0.500663,0.0797 -1.183386,0.13654 -1.661292,0.13654 -1.513368,0 -1.638534,-0.32998 -1.638534,-1.97989 h 3.493264 z m -2.093683,-2.26436 c 0.989948,0 1.263037,0.18205 1.263037,1.78645 v 0.12517 h -2.662618 c 0.01138,-1.64991 0.147923,-1.91162 1.399581,-1.91162 z"
         style="font-size:11.37871075px;stroke-width:0.26458332"
         id="path905" />
      <path
         d="m 98.689384,290.42572 h 0.864782 v -3.01536 c 0,-1.31993 0.03414,-2.09368 1.240284,-2.09368 0.95581,0 1.09235,0.18206 1.09235,1.74094 v 3.3681 h 0.86478 v -3.01536 c 0,-1.3882 0.0341,-2.09368 1.2289,-2.09368 0.9672,0 1.10374,0.18206 1.10374,1.74094 v 3.3681 h 0.86478 v -3.67532 c 0,-1.55889 -0.23895,-2.21885 -1.62715,-2.21885 -0.96719,0 -1.41096,0.3755 -1.6044,0.91029 h -0.0683 c -0.17068,-0.6372 -0.56894,-0.91029 -1.51337,-0.91029 -0.96719,0 -1.376827,0.3755 -1.570265,0.91029 h -0.05689 l -0.04551,-0.81926 h -0.773753 z"
         style="font-size:11.37871075px;stroke-width:0.26458332"
         id="path907" />
      <path
         d="m 107.62292,283.05232 h 0.92167 v -1.08098 h -0.92167 z m 0.0228,7.3734 h 0.86478 v -5.80314 h -0.86478 z"
         style="font-size:11.37871075px;stroke-width:0.26458332"
         id="path909" />
      <path
         d="m 111.89633,290.51675 c 1.29718,0 1.94576,-0.3186 1.94576,-1.70681 0,-1.29717 -0.32998,-1.52474 -1.13787,-1.61577 l -1.30855,-0.15931 c -0.52342,-0.0569 -0.64859,-0.13654 -0.64859,-0.8534 0,-0.83064 0.42102,-0.92167 1.20615,-0.92167 0.55755,0 1.10373,0.0455 1.59302,0.13654 v -0.70548 c -0.39826,-0.091 -1.0696,-0.1593 -1.6044,-0.1593 -1.25166,0 -2.03679,0.21619 -2.03679,1.69543 0,1.02408 0.21619,1.43371 1.08098,1.5475 l 1.34268,0.1593 c 0.5348,0.0683 0.65997,0.10241 0.65997,0.9103 0,0.65996 -0.12517,0.94443 -1.16063,0.94443 -0.60307,0 -1.11511,-0.0455 -1.7637,-0.12516 v 0.71686 c 0.48929,0.0797 1.26304,0.13654 1.83197,0.13654 z"
         style="font-size:11.37871075px;stroke-width:0.26458332"
         id="path911" />
      <path
         d="m 115.57841,290.42572 h 0.86479 v -5.06353 h 1.18338 v -0.73961 h -1.18338 v -1.68405 h -0.86479 v 1.68405 h -1.0127 v 0.73961 h 1.0127 z"
         style="font-size:11.37871075px;stroke-width:0.26458332"
         id="path913" />
      <path
         d="m 118.7577,290.42572 h 0.86478 v -2.73089 c 0,-1.55888 0.35274,-2.28712 1.72956,-2.28712 v -0.87616 c -0.83064,0 -1.45647,0.22757 -1.71818,1.19476 h -0.0569 l -0.0455,-1.10373 h -0.77375 z"
         style="font-size:11.37871075px;stroke-width:0.26458332"
         id="path915" />
      <path
         d="m 124.41487,292.7356 c 2.0823,0 2.35539,-0.8534 2.35539,-3.06087 v -5.05215 h -0.86478 v 2.9926 c 0,1.31993 -0.0341,2.10506 -1.35407,2.10506 -1.05822,0 -1.2289,-0.18206 -1.2289,-1.75232 v -3.34534 h -0.86478 v 3.53878 c 0,1.62715 0.2162,2.32125 1.74094,2.32125 1.04684,0 1.46786,-0.37549 1.64992,-0.84202 h 0.0569 v 0.30722 c 0,1.53613 -0.11379,2.04817 -1.66129,2.04817 -0.44377,0 -1.02409,-0.0228 -1.55889,-0.0569 v 0.70548 c 0.4324,0.0455 1.14925,0.091 1.72957,0.091 z"
         style="font-size:11.37871075px;stroke-width:0.26458332"
         id="path917" />
    </g>
  </g>
</svg>
