<?xml version="1.0" encoding="UTF-8" standalone="no"?>
<!-- Created with Inkscape (http://www.inkscape.org/) -->

<svg
   xmlns:dc="http://purl.org/dc/elements/1.1/"
   xmlns:cc="http://creativecommons.org/ns#"
   xmlns:rdf="http://www.w3.org/1999/02/22-rdf-syntax-ns#"
   xmlns:svg="http://www.w3.org/2000/svg"
   xmlns="http://www.w3.org/2000/svg"
   xmlns:sodipodi="http://sodipodi.sourceforge.net/DTD/sodipodi-0.dtd"
   xmlns:inkscape="http://www.inkscape.org/namespaces/inkscape"
   width="227mm"
   height="50mm"
   viewBox="0 0 227 50"
   version="1.1"
   id="svg914"
   inkscape:version="0.92.4 (5da689c313, 2019-01-14)"
   sodipodi:docname="sosense-logo.svg">
  <defs
     id="defs908">
    <inkscape:perspective
       sodipodi:type="inkscape:persp3d"
       inkscape:vp_x="0 : 25 : 1"
       inkscape:vp_y="0 : 1000 : 0"
       inkscape:vp_z="227 : 25 : 1"
       inkscape:persp3d-origin="113.5 : 16.666667 : 1"
       id="perspective825" />
  </defs>
  <sodipodi:namedview
     id="base"
     pagecolor="#ffffff"
     bordercolor="#666666"
     borderopacity="1.0"
     inkscape:pageopacity="0.0"
     inkscape:pageshadow="2"
     inkscape:zoom="2.8"
     inkscape:cx="703.16428"
     inkscape:cy="57.9507"
     inkscape:document-units="mm"
     inkscape:current-layer="layer1"
     showgrid="false"
     inkscape:window-width="1920"
     inkscape:window-height="1054"
     inkscape:window-x="1911"
     inkscape:window-y="-9"
     inkscape:window-maximized="1" />
  <metadata
     id="metadata911">
    <rdf:RDF>
      <cc:Work
         rdf:about="">
        <dc:format>image/svg+xml</dc:format>
        <dc:type
           rdf:resource="http://purl.org/dc/dcmitype/StillImage" />
        <dc:title />
      </cc:Work>
    </rdf:RDF>
  </metadata>
  <g
     inkscape:label="Layer 1"
     inkscape:groupmode="layer"
     id="layer1"
     transform="translate(0,-247)">
    <path
       style="opacity:0.5;vector-effect:none;fill:#e6e6e6;fill-opacity:1;stroke:none;stroke-width:4;stroke-linecap:butt;stroke-linejoin:miter;stroke-miterlimit:10;stroke-dasharray:none;stroke-dashoffset:0;stroke-opacity:1;paint-order:stroke fill markers"
       d="M 48.617036,272.20062 A 23.621996,23.620521 0 0 1 24.995041,295.82113 23.621996,23.620521 0 0 1 1.3730495,272.20062 23.621996,23.620521 0 0 1 24.995041,248.58009 23.621996,23.620521 0 0 1 48.617036,272.20062 Z"
       id="path4518-3-1-4-2-1-6-8-5-4-4"
       inkscape:connector-curvature="0"
       inkscape:export-xdpi="300"
       inkscape:export-ydpi="300" />
    <path
       style="opacity:1;vector-effect:none;fill:none;fill-opacity:1;stroke:#343a40;stroke-width:2.5;stroke-linecap:butt;stroke-linejoin:miter;stroke-miterlimit:10;stroke-dasharray:none;stroke-dashoffset:0;stroke-opacity:1;paint-order:stroke fill markers"
       d="m 40.020815,290.42734 c -0.583325,0.48137 -1.190148,0.9353 -1.818496,1.35977 -1.25669,0.84896 -2.599488,1.58017 -4.012533,2.1778 -1.413043,0.59763 -2.896354,1.06168 -4.434092,1.37633 -1.537731,0.31466 -3.129896,0.47989 -4.760653,0.47989 -13.046061,0 -23.6219915,-10.57527 -23.6219915,-23.62051 0,-13.04527 10.5759205,-23.62053 23.6219915,-23.62053 13.046071,0 23.621995,10.57526 23.621995,23.62053 0,0.40766 -0.01028,0.81291 -0.03077,1.2155"
       id="path4518-3-1-4-2-1-6-8-5-4-4-1"
       inkscape:connector-curvature="0"
       sodipodi:nodetypes="csssssssc"
       inkscape:export-xdpi="300"
       inkscape:export-ydpi="300" />
    <path
       style="fill:none;stroke:#343a40;stroke-width:2.5;stroke-miterlimit:4;stroke-dasharray:none;stroke-opacity:1"
       d="m 30.962452,259.16486 c -2.104377,-2.19037 -4.25851,-3.01598 -7.16566,-2.74636 -3.674552,0.34077 -5.378141,2.05894 -5.378141,5.42426 0,3.28656 1.625443,4.92919 7.581686,7.66185 7.060539,3.23929 9.634459,6.16236 9.590411,10.8913 -0.02558,2.74933 -1.341121,5.904 -3.07428,7.37217 -2.629591,2.22756 -7.412451,3.29969 -11.264557,2.52503 v 0 c -2.621201,-0.5271 -6.435458,-2.77823 -8.021531,-4.73417 m 3.493791,-2.0832 c 4.187281,4.60273 11.291393,4.89882 14.016983,0.58423 2.685296,-4.25085 0.487214,-7.93488 -6.630329,-11.11242 -7.087522,-3.16412 -9.629128,-6.00963 -9.629128,-10.78046 0,-4.12167 1.731252,-6.78031 5.511773,-8.46431 4.125983,-1.83786 10.020311,-0.76505 13.51703,2.46017"
       id="path4971-3-7-4-4-3"
       inkscape:connector-curvature="0"
       sodipodi:nodetypes="ccscccccccccssc"
       inkscape:export-xdpi="300"
       inkscape:export-ydpi="300" />
    <path
       style="fill:#343a40;fill-opacity:1;stroke-width:0.99999988"
       d="m 44.979106,290.98507 c -3.814048,-1.02843 -6.375518,-5.01973 -5.778091,-9.00341 0.31544,-2.10336 1.935182,-4.56539 3.733105,-5.67437 2.223408,-1.37141 5.143002,-1.50792 7.507764,-0.35101 2.028067,0.99217 3.415088,2.72698 4.122317,5.15597 1.255822,4.31315 -1.518373,9.03413 -5.855279,9.96417 -1.859919,0.39887 -1.917044,0.39746 -3.729816,-0.0915 z m 4.322131,-2.19689 c 0.958658,-0.50078 2.31348,-1.88468 2.830781,-2.89152 0.522949,-1.0178 0.430351,-4.3559 -0.155062,-5.58946 -2.216977,-4.67167 -8.825797,-3.98509 -10.295315,1.06957 -1.161027,3.99354 1.427647,7.84073 5.280931,7.84834 0.823157,0.001 1.87556,-0.19499 2.338665,-0.43693 z m 22.045998,2.42305 c -4.278502,-1.04961 -6.383279,-3.71136 -6.389322,-8.08008 -0.007,-5.11989 3.419072,-8.30433 8.444473,-7.84867 3.641217,0.33015 5.946315,2.76556 6.157665,6.50579 l 0.120882,2.13912 h -6.271656 c -4.813092,0 -6.270057,0.0906 -6.264794,0.38976 0.01706,0.96911 1.278341,3.03725 2.351556,3.85578 1.04879,0.79991 1.428594,0.89922 3.438567,0.89922 2.045694,0 2.39542,-0.0959 3.695015,-1.01174 1.234801,-0.87032 1.521682,-0.95791 2.052288,-0.62655 0.339258,0.21184 0.616828,0.49845 0.616828,0.63686 0,0.40755 -1.6268,1.79994 -2.809679,2.40484 -1.139308,0.58262 -4.061447,1.00072 -5.141823,0.73567 z m 6.080556,-9.79068 c 0,-0.54724 -1.147394,-2.60767 -1.759794,-3.16015 -0.937724,-0.846 -3.245691,-1.29629 -4.673506,-0.91184 -1.451542,0.39084 -3.128376,2.00805 -3.528484,3.40305 l -0.284843,0.99316 h 5.123308 c 3.33853,0 5.123319,-0.11291 5.123319,-0.32422 z m 27.609329,9.77599 c -2.47339,-0.68213 -2.9753,-2.14612 -2.9753,-8.67858 v -5.13845 h -1.09138 c -1.004761,0 -1.091379,-0.0744 -1.091379,-0.93541 0,-0.86118 0.08659,-0.93542 1.091379,-0.93542 h 1.09138 v -2.02672 -2.02671 h 1.09138 1.09137 v 2.02671 2.02672 h 2.33868 2.33868 v 0.93542 0.93541 h -2.33868 -2.33868 l 0.005,5.06681 c 0.006,5.97721 0.18427,6.57611 2.00841,6.72599 0.67051,0.0551 1.53951,-0.0714 1.9311,-0.28084 0.5653,-0.30253 0.81055,-0.29924 1.19035,0.0159 0.67231,0.55793 0.60408,0.81225 -0.41197,1.53571 -0.93342,0.66461 -2.89107,1.0399 -3.92993,0.75339 z m 19.44395,-0.0624 c -1.55705,-0.32441 -3.82284,-1.70985 -4.765,-2.91364 l -0.78878,-1.00784 0.66447,-0.70727 c 0.36548,-0.38899 0.78466,-0.70728 0.9315,-0.70728 0.14685,0 0.71753,0.51312 1.26822,1.14027 2.48735,2.83277 6.70736,3.01498 8.32642,0.35957 1.59513,-2.61617 0.28941,-4.88353 -3.93858,-6.83911 -4.21016,-1.94738 -5.71995,-3.69866 -5.71995,-6.63484 0,-2.5367 1.02841,-4.17296 3.27415,-5.20937 2.45093,-1.13109 5.9523,-0.47085 8.02944,1.51411 1.06622,1.01892 1.0781,1.47931 0.0556,2.1493 -0.77689,0.509 -0.82602,0.49955 -1.56911,-0.30177 -1.25005,-1.34805 -2.52966,-1.85618 -4.25659,-1.69024 -2.18277,0.20971 -3.19475,1.26718 -3.19475,3.33836 0,2.02271 0.96557,3.03366 4.50373,4.71548 4.19411,1.99362 5.7231,3.79263 5.69693,6.70303 -0.0152,1.69209 -0.79665,3.63361 -1.8262,4.53719 -1.56204,1.37097 -4.40317,2.0308 -6.69142,1.55405 z m 17.40477,-0.15375 c -3.14028,-0.87228 -5.24057,-3.6521 -5.46895,-7.23834 -0.3125,-4.90751 2.88047,-8.54526 7.50046,-8.54526 4.16538,0 7.06261,2.73989 7.19784,6.8069 l 0.0589,1.7677 -6.31874,0.0845 -6.31872,0.0845 0.20398,0.85101 c 0.46576,1.94308 1.31605,3.00722 3.14126,3.93141 1.92425,0.97436 5.19636,0.45053 6.84192,-1.09529 0.55319,-0.51968 0.79541,-0.57177 1.3295,-0.28596 0.92378,0.49436 0.81186,1.11237 -0.36035,1.98979 -2.42264,1.81337 -5.14529,2.38852 -7.80697,1.64921 z m 6.94944,-9.55754 c 0,-0.69086 -0.89155,-2.3611 -1.59689,-2.99165 -2.40741,-2.15221 -6.43766,-1.38856 -7.94335,1.50512 -0.93476,1.79647 -0.90483,1.80835 4.55107,1.80835 3.22174,0 4.98917,-0.11396 4.98917,-0.32182 z m 27.04053,9.66221 c -1.65218,-0.40979 -2.72364,-1.01882 -3.80971,-2.16549 l -0.93547,-0.98768 0.73614,-0.59917 c 0.92191,-0.75039 1.18754,-0.75096 1.58763,-0.004 0.60101,1.12296 2.38715,1.94881 4.2511,1.96556 2.24677,0.0202 3.36165,-0.72897 3.49986,-2.35179 0.0845,-0.99024 -0.031,-1.2091 -0.92257,-1.75128 -0.56041,-0.34079 -1.93682,-0.90189 -3.0587,-1.24689 -2.7525,-0.84645 -4.01221,-1.68203 -4.57836,-3.03693 -1.2414,-2.97094 1.07156,-5.71114 4.82073,-5.71114 1.94104,0 3.33038,0.47707 4.85291,1.66638 l 1.21041,0.9455 -0.86094,0.7405 -0.86094,0.7405 -0.8172,-0.76114 c -1.21884,-1.13519 -2.02533,-1.46091 -3.61729,-1.46091 -1.11086,0 -1.61193,0.17406 -2.20325,0.76532 -1.5903,1.59021 -0.71457,3.00537 2.44529,3.95162 3.01065,0.90158 4.40276,1.63479 5.18228,2.72948 1.31591,1.84789 0.50557,4.72656 -1.68981,6.00297 -1.16922,0.67981 -3.68172,0.95257 -5.23211,0.56804 z m 16.77063,0.0488 c -3.23604,-0.83897 -5.64175,-3.65575 -5.98514,-7.00777 -0.74475,-7.2704 7.65563,-11.79147 12.92616,-6.95683 3.27305,3.00236 3.65722,7.6075 0.92981,11.14598 -1.7086,2.21671 -5.27135,3.49257 -7.87083,2.81862 z m 3.98574,-2.33517 c 1.21346,-0.51916 2.5591,-1.90431 3.01043,-3.09879 0.54213,-1.43476 0.40199,-4.154 -0.2833,-5.49716 -1.77459,-3.4783 -6.10773,-4.11494 -8.79621,-1.29235 -4.4055,4.62524 0.33146,12.34311 6.06908,9.8883 z m 22.83104,2.33725 c -1.42695,-0.37311 -2.71128,-1.12861 -3.71712,-2.18653 -0.88778,-0.93376 -0.89637,-0.97373 -0.34145,-1.58687 0.66978,-0.74004 1.2719,-0.80994 1.51522,-0.17588 0.28816,0.75086 2.47012,1.98925 3.63472,2.06294 2.1041,0.13312 2.84115,-0.0281 3.60015,-0.78694 0.92028,-0.92023 0.98579,-2.13232 0.15987,-2.95818 -0.33305,-0.33302 -1.51725,-0.88707 -2.6316,-1.23123 -4.45035,-1.3745 -5.64984,-2.40942 -5.64984,-4.87469 0,-1.33438 0.15181,-1.82158 0.77955,-2.50188 1.77993,-1.92892 5.05206,-2.28211 7.80458,-0.8424 2.19176,1.14642 2.57783,1.78608 1.55011,2.56833 -0.77279,0.58822 -0.78633,0.58708 -1.55911,-0.1309 -1.17314,-1.08992 -1.99988,-1.42406 -3.52341,-1.42406 -1.74188,0 -3.02488,0.91487 -3.02488,2.15693 0,1.20622 0.77793,1.78915 3.61949,2.71224 1.35358,0.43971 2.92049,1.08101 3.48204,1.4251 2.69118,1.64905 2.53123,5.30345 -0.30895,7.05867 -1.18203,0.73049 -3.9344,1.09583 -5.38937,0.71535 z M 58.718407,279.09439 v -12.00444 h 1.09138 1.091382 v 12.00444 12.00444 h -1.091382 -1.09138 z m 24.945858,4.22911 v -7.81487 h 1.091381 c 1.018986,0 1.091371,0.066 1.091371,0.99376 v 0.99376 l 0.85751,-0.81801 c 2.303514,-2.19741 5.928701,-1.97697 8.096893,0.49231 1.312448,1.49472 1.491668,2.53129 1.491668,8.62771 v 5.14476 l -0.982823,0.0956 -0.982837,0.0956 -0.108536,-5.56628 c -0.119979,-6.15161 -0.274235,-6.69734 -2.230318,-7.88995 -1.181851,-0.72058 -2.343181,-0.77214 -3.788651,-0.16822 -1.969936,0.82303 -2.178627,1.5154 -2.352906,7.80582 l -0.155904,5.62776 -1.013434,0.0978 -1.013414,0.0975 z m 71.407475,-0.0198 v -7.79512 h 1.09138 c 1.00851,0 1.09139,0.0722 1.09139,0.95012 v 0.9501 l 1.2553,-1.00873 c 1.02123,-0.82063 1.60053,-1.03371 3.10631,-1.14262 1.56275,-0.11301 2.05976,-0.0118 3.19153,0.65167 0.80482,0.47164 1.65069,1.3273 2.11672,2.14127 0.75023,1.31038 0.77621,1.5488 0.77621,7.12412 v 5.76836 l -1.01342,0.0978 -1.01343,0.0976 v -5.22198 c 0,-4.62235 -0.0733,-5.37317 -0.63743,-6.53864 -1.38371,-2.85818 -5.5056,-3.07726 -7.15015,-0.38006 -0.56866,0.93265 -0.62942,1.56555 -0.63047,6.56665 l -0.001,5.53451 h -1.09139 -1.09139 z m 51.13899,0 v -7.79512 h 1.09138 c 1.04713,0 1.09139,0.046 1.09139,1.13339 v 1.13335 l 0.676,-0.85933 c 1.20942,-1.53745 4.63034,-2.40627 4.62072,-1.17355 -0.0118,1.45489 -0.32245,1.81687 -1.60552,1.86803 -0.69272,0.0276 -1.60785,0.27847 -2.03365,0.55745 -1.39082,0.91124 -1.65755,2.16261 -1.65755,7.77607 v 5.15479 h -1.09139 -1.09138 z"
       id="path4971-36"
       inkscape:connector-curvature="0"
       sodipodi:nodetypes="cccccsccccccccccsccsccsccsccsccccsscscsssccccccccccccccccccccccccscccssscccscccccccscccccccccccsccsscccsccccccscccccssccccccccscccsccccccccsssccccsssssccccccccccccsscccsccccccsccccccsscccccscccscscccccccsscccccscccc"
       inkscape:export-xdpi="300"
       inkscape:export-ydpi="300" />
    <g
       sodipodi:type="inkscape:box3d"
       id="g827"
       style="opacity:1;vector-effect:none;fill:#000000;fill-opacity:0;stroke:#343a40;stroke-width:9.44881916;stroke-linecap:butt;stroke-linejoin:miter;stroke-miterlimit:10;stroke-dasharray:none;stroke-dashoffset:0;stroke-opacity:0;paint-order:stroke fill markers"
       inkscape:perspectiveID="#perspective825"
       inkscape:corner0="1.6213886 : 0.30782022 : 0 : 1"
       inkscape:corner7="0.3787823 : 0.14706183 : 0.25 : 1">
      <path
         sodipodi:type="inkscape:box3dside"
         id="path829"
         style="fill:#353564;fill-rule:evenodd;stroke:none;stroke-linejoin:round"
         inkscape:box3dsidetype="6"
         d="m 43.297663,157.75258 v 61.32566 l 15.994207,4.60768 v -55.98629 z"
         points="43.297663,219.07824 59.29187,223.68592 59.29187,167.69963 43.297663,157.75258 " />
      <path
         sodipodi:type="inkscape:box3dside"
         id="path839"
         style="fill:#e9e9ff;fill-rule:evenodd;stroke:none;stroke-linejoin:round"
         inkscape:box3dsidetype="11"
         d="m 59.29187,167.69963 45.23407,-79.57128 v 98.69851 l -45.23407,36.85906 z"
         points="104.52594,88.12835 104.52594,186.82686 59.29187,223.68592 59.29187,167.69963 " />
      <path
         sodipodi:type="inkscape:box3dside"
         id="path831"
         style="fill:#4d4d9f;fill-rule:evenodd;stroke:none;stroke-linejoin:round"
         inkscape:box3dsidetype="5"
         d="M 43.297663,157.75258 82.319015,54.78885 104.52594,88.12835 59.29187,167.69963 Z"
         points="82.319015,54.78885 104.52594,88.12835 59.29187,167.69963 43.297663,157.75258 " />
      <path
         sodipodi:type="inkscape:box3dside"
         id="path837"
         style="fill:#afafde;fill-rule:evenodd;stroke:none;stroke-linejoin:round"
         inkscape:box3dsidetype="13"
         d="m 43.297663,219.07824 39.021352,-47.69492 22.206925,15.44354 -45.23407,36.85906 z"
         points="82.319015,171.38332 104.52594,186.82686 59.29187,223.68592 43.297663,219.07824 " />
      <path
         sodipodi:type="inkscape:box3dside"
         id="path835"
         style="fill:#d7d7ff;fill-rule:evenodd;stroke:none;stroke-linejoin:round"
         inkscape:box3dsidetype="14"
         d="m 82.319015,54.78885 v 116.59447 l 22.206925,15.44354 V 88.12835 Z"
         points="82.319015,171.38332 104.52594,186.82686 104.52594,88.12835 82.319015,54.78885 " />
      <path
         sodipodi:type="inkscape:box3dside"
         id="path833"
         style="fill:#8686bf;fill-rule:evenodd;stroke:none;stroke-linejoin:round"
         inkscape:box3dsidetype="3"
         d="M 43.297663,157.75258 82.319015,54.78885 v 116.59447 l -39.021352,47.69492 z"
         points="82.319015,54.78885 82.319015,171.38332 43.297663,219.07824 43.297663,157.75258 " />
    </g>
  </g>
</svg>
