<?xml version="1.0" encoding="UTF-8" standalone="no"?>
<!-- Created with Inkscape (http://www.inkscape.org/) -->

<svg
   xmlns:dc="http://purl.org/dc/elements/1.1/"
   xmlns:cc="http://creativecommons.org/ns#"
   xmlns:rdf="http://www.w3.org/1999/02/22-rdf-syntax-ns#"
   xmlns:svg="http://www.w3.org/2000/svg"
   xmlns="http://www.w3.org/2000/svg"
   xmlns:sodipodi="http://sodipodi.sourceforge.net/DTD/sodipodi-0.dtd"
   xmlns:inkscape="http://www.inkscape.org/namespaces/inkscape"
   width="50mm"
   height="50mm"
   viewBox="0 0 50 50"
   version="1.1"
   id="svg1586"
   inkscape:version="0.92.4 (5da689c313, 2019-01-14)"
   sodipodi:docname="favicon.svg"
   inkscape:export-filename="C:\SoSense\sosense_site\static\favicon.png"
   inkscape:export-xdpi="300"
   inkscape:export-ydpi="300">
  <defs
     id="defs1580" />
  <sodipodi:namedview
     id="base"
     pagecolor="#ffffff"
     bordercolor="#666666"
     borderopacity="1.0"
     inkscape:pageopacity="0.0"
     inkscape:pageshadow="2"
     inkscape:zoom="2.078763"
     inkscape:cx="66.681999"
     inkscape:cy="120.84255"
     inkscape:document-units="mm"
     inkscape:current-layer="layer1"
     showgrid="false"
     inkscape:window-width="1920"
     inkscape:window-height="1051"
     inkscape:window-x="1911"
     inkscape:window-y="153"
     inkscape:window-maximized="1" />
  <metadata
     id="metadata1583">
    <rdf:RDF>
      <cc:Work
         rdf:about="">
        <dc:format>image/svg+xml</dc:format>
        <dc:type
           rdf:resource="http://purl.org/dc/dcmitype/StillImage" />
        <dc:title />
      </cc:Work>
    </rdf:RDF>
  </metadata>
  <g
     inkscape:label="Layer 1"
     inkscape:groupmode="layer"
     id="layer1"
     transform="translate(0,-247)">
    <path
       style="opacity:0.5;vector-effect:none;fill:#e6e6e6;fill-opacity:1;stroke:none;stroke-width:4;stroke-linecap:butt;stroke-linejoin:miter;stroke-miterlimit:10;stroke-dasharray:none;stroke-dashoffset:0;stroke-opacity:1;paint-order:stroke fill markers"
       d="M 48.74967,272.12949 A 23.621996,23.620521 0 0 1 25.127675,295.75 23.621996,23.620521 0 0 1 1.5056831,272.12949 23.621996,23.620521 0 0 1 25.127675,248.50897 23.621996,23.620521 0 0 1 48.74967,272.12949 Z"
       id="path4518-3-1-4-2-1-6-8-5-4-4"
       inkscape:connector-curvature="0"
       inkscape:export-xdpi="300"
       inkscape:export-ydpi="300" />
    <g
       aria-label="CW"
       style="font-style:normal;font-variant:normal;font-weight:normal;font-stretch:normal;font-size:14.60640812px;line-height:1;font-family:'Saira SemiCondensed';-inkscape-font-specification:'Saira SemiCondensed, ';letter-spacing:0px;word-spacing:0px;fill:#000000;fill-opacity:1;stroke:none;stroke-width:0.26458332"
       id="text817-2-7-2-9-4-4">
      <path
         d="m 10.106812,286.20934 c 1.830669,0 4.128744,-0.2337 5.56991,-0.54531 v -3.19393 c -1.285364,0.19475 -3.193935,0.35055 -4.6351,0.35055 -5.9204641,0 -6.3878691,-0.89586 -6.3878691,-10.32186 0,-9.426 0.467405,-10.32186 6.3878691,-10.32186 1.129562,0 2.843381,0.1558 4.479298,0.35055 v -3.15498 c -1.285364,-0.35055 -3.544488,-0.58426 -5.414108,-0.58426 -8.218539,0 -9.46495241,2.49283 -9.46495241,13.71055 0,11.29562 1.20746301,13.71055 9.46495241,13.71055 z"
         style="font-style:normal;font-variant:normal;font-weight:500;font-stretch:semi-condensed;font-size:38.95042038px;font-family:'Saira SemiCondensed';-inkscape-font-specification:'Saira SemiCondensed, Medium Semi-Condensed';fill:#00aad4;stroke-width:0.26458332"
         id="path825" />
      <path
         d="m 23.984117,285.89774 h 5.063555 l 4.751951,-20.52688 h 0.194752 l 4.751951,20.52688 h 5.063555 l 5.803613,-26.79789 H 45.6016 l -4.245596,21.73433 h -0.233702 l -4.946703,-21.73433 h -4.401398 l -4.907753,21.73433 h -0.233702 l -4.362448,-21.73433 h -4.089794 z"
         style="font-style:normal;font-variant:normal;font-weight:500;font-stretch:semi-condensed;font-size:38.95042038px;font-family:'Saira SemiCondensed';-inkscape-font-specification:'Saira SemiCondensed, Medium Semi-Condensed';fill:#00aad4;stroke-width:0.26458332"
         id="path827" />
    </g>
  </g>
</svg>
