<?xml version="1.0" encoding="UTF-8" standalone="no"?>
<!-- Created with Inkscape (http://www.inkscape.org/) -->

<svg
   xmlns:dc="http://purl.org/dc/elements/1.1/"
   xmlns:cc="http://creativecommons.org/ns#"
   xmlns:rdf="http://www.w3.org/1999/02/22-rdf-syntax-ns#"
   xmlns:svg="http://www.w3.org/2000/svg"
   xmlns="http://www.w3.org/2000/svg"
   xmlns:sodipodi="http://sodipodi.sourceforge.net/DTD/sodipodi-0.dtd"
   xmlns:inkscape="http://www.inkscape.org/namespaces/inkscape"
   width="50mm"
   height="50mm"
   viewBox="0 0 50 50"
   version="1.1"
   id="svg1586"
   inkscape:version="0.92.4 (5da689c313, 2019-01-14)"
   sodipodi:docname="favicon.svg">
  <defs
     id="defs1580" />
  <sodipodi:namedview
     id="base"
     pagecolor="#ffffff"
     bordercolor="#666666"
     borderopacity="1.0"
     inkscape:pageopacity="0.0"
     inkscape:pageshadow="2"
     inkscape:zoom="2.078763"
     inkscape:cx="180.69211"
     inkscape:cy="120.84255"
     inkscape:document-units="mm"
     inkscape:current-layer="layer1"
     showgrid="false"
     inkscape:window-width="1920"
     inkscape:window-height="1007"
     inkscape:window-x="-9"
     inkscape:window-y="-9"
     inkscape:window-maximized="1" />
  <metadata
     id="metadata1583">
    <rdf:RDF>
      <cc:Work
         rdf:about="">
        <dc:format>image/svg+xml</dc:format>
        <dc:type
           rdf:resource="http://purl.org/dc/dcmitype/StillImage" />
        <dc:title></dc:title>
      </cc:Work>
    </rdf:RDF>
  </metadata>
  <g
     inkscape:label="Layer 1"
     inkscape:groupmode="layer"
     id="layer1"
     transform="translate(0,-247)">
    <path
       style="opacity:0.5;vector-effect:none;fill:#e6e6e6;fill-opacity:1;stroke:none;stroke-width:4;stroke-linecap:butt;stroke-linejoin:miter;stroke-miterlimit:10;stroke-dasharray:none;stroke-dashoffset:0;stroke-opacity:1;paint-order:stroke fill markers"
       d="M 48.493988,272.12949 A 23.621996,23.620521 0 0 1 24.871993,295.75 23.621996,23.620521 0 0 1 1.250001,272.12949 23.621996,23.620521 0 0 1 24.871993,248.50897 23.621996,23.620521 0 0 1 48.493988,272.12949 Z"
       id="path4518-3-1-4-2-1-6-8-5-4-4"
       inkscape:connector-curvature="0"
       inkscape:export-xdpi="300"
       inkscape:export-ydpi="300" />
    <path
       style="fill:none;stroke:#343a40;stroke-width:2.5;stroke-miterlimit:4;stroke-dasharray:none;stroke-opacity:1"
       d="m 30.839403,259.09374 c -2.104377,-2.19037 -4.258508,-3.01598 -7.165659,-2.74636 -3.674552,0.34077 -5.378141,2.05894 -5.378141,5.42426 0,3.28656 1.625443,4.92919 7.581686,7.66184 7.060538,3.23929 9.63446,6.16236 9.590412,10.8913 -0.02558,2.74933 -1.341123,5.904 -3.074281,7.37217 -2.629591,2.22756 -7.412451,3.29969 -11.264557,2.52503 v 0 c -2.621201,-0.5271 -6.435458,-2.77823 -8.021531,-4.73417 m 3.493791,-2.0832 c 4.187281,4.60273 11.291393,4.89882 14.016983,0.58424 2.685295,-4.25086 0.487214,-7.93489 -6.630329,-11.11243 -7.087522,-3.16412 -9.629128,-6.00962 -9.629128,-10.78045 0,-4.12167 1.731252,-6.78031 5.511773,-8.46431 4.125983,-1.83786 10.02031,-0.76505 13.51703,2.46017"
       id="path4971-3-7-4-4-3"
       inkscape:connector-curvature="0"
       sodipodi:nodetypes="ccscccccccccssc"
       inkscape:export-xdpi="300"
       inkscape:export-ydpi="300" />
    <path
       style="opacity:1;vector-effect:none;fill:none;fill-opacity:1;stroke:#343a40;stroke-width:2.5;stroke-linecap:butt;stroke-linejoin:miter;stroke-miterlimit:10;stroke-dasharray:none;stroke-dashoffset:0;stroke-opacity:1;paint-order:stroke fill markers"
       d="M 48.493987,272.12949 A 23.621996,23.620521 0 0 1 24.871992,295.75 23.621996,23.620521 0 0 1 1.25,272.12949 23.621996,23.620521 0 0 1 24.871992,248.50897 23.621996,23.620521 0 0 1 48.493987,272.12949 Z"
       id="path4518-3-1-4-2-1-6-8-5-4-4-9"
       inkscape:connector-curvature="0"
       inkscape:export-xdpi="300"
       inkscape:export-ydpi="300" />
  </g>
</svg>
